<svg xmlns="http://www.w3.org/2000/svg" xmlns:xlink="http://www.w3.org/1999/xlink" version="1.1" width="256" height="256" viewBox="0 0 256 256" xml:space="preserve">

<defs>
</defs>
<g style="stroke: none; stroke-width: 0; stroke-dasharray: none; stroke-linecap: butt; stroke-linejoin: miter; stroke-miterlimit: 10; fill: none; fill-rule: nonzero; opacity: 1;" transform="translate(94.33151750972763 94.3315175097276) scale(0.74 0.74)" >
	<path d="M 41.324 89.942 C 18.538 89.942 0 71.403 0 48.618 C 0 25.831 18.538 7.293 41.324 7.293 h 1.484 v 39.841 h 39.841 v 1.484 C 82.648 71.403 64.11 89.942 41.324 89.942 z M 39.841 10.289 C 19.376 11.071 2.967 27.964 2.967 48.618 c 0 21.15 17.207 38.357 38.357 38.357 c 20.653 0 37.546 -16.409 38.329 -36.873 H 39.841 V 10.289 z" style="stroke: none; stroke-width: 1; stroke-dasharray: none; stroke-linecap: butt; stroke-linejoin: miter; stroke-miterlimit: 10; fill: rgb(255,255,255); fill-rule: nonzero; opacity: 1;" transform=" matrix(1 0 0 1 0 0) " stroke-linecap="round" />
	<path d="M 90 42.866 H 47.192 V 0.058 h 1.484 C 71.462 0.058 90 18.596 90 41.382 V 42.866 z M 50.159 39.899 h 36.845 C 86.241 19.927 70.132 3.817 50.159 3.054 V 39.899 z" style="stroke: none; stroke-width: 1; stroke-dasharray: none; stroke-linecap: butt; stroke-linejoin: miter; stroke-miterlimit: 10; fill: rgb(255,255,255); fill-rule: nonzero; opacity: 1;" transform=" matrix(1 0 0 1 0 0) " stroke-linecap="round" />
</g>
</svg>